<?xml version="1.0" encoding="utf-8"?>
<!-- Generator: Adobe Illustrator 19.1.0, SVG Export Plug-In . SVG Version: 6.00 Build 0)  -->
<svg version="1.1" id="Layer_1" xmlns="http://www.w3.org/2000/svg" xmlns:xlink="http://www.w3.org/1999/xlink" x="0px" y="0px"
	 viewBox="-151.2 231 40 40" style="enable-background:new -151.2 231 40 40;" xml:space="preserve">
<style type="text/css">
	.st0{fill:none;}
	.st1{fill:url(#SVGID_1_);}
	.st2{fill:url(#SVGID_2_);}
	.st3{fill:url(#SVGID_3_);}
	.st4{fill:url(#SVGID_4_);}
</style>
<rect x="-151.2" y="231" width="40" height="40"/>
<g>
	<polygon class="st0" points="-129.6,250.9 -125.9,247.3 -125.9,247.3 -129.6,250.9 -141.5,239.1 -141.5,239.1 -129.6,250.9 
		-141.5,262.9 -141.5,262.9 -129.6,250.9 -125.9,254.6 -125.9,254.6 	"/>
	
		<linearGradient id="SVGID_1_" gradientUnits="userSpaceOnUse" x1="553.5884" y1="690.4965" x2="537.9914" y2="700.2579" gradientTransform="matrix(0.7071 0.7071 0.7071 -0.7071 -1011.827 346.819)">
		<stop  offset="0" style="stop-color:#D7E69D"/>
		<stop  offset="0.4456" style="stop-color:#94C4AA"/>
		<stop  offset="1" style="stop-color:#01A4B6"/>
	</linearGradient>
	<path class="st1" d="M-125.9,247.3l-14.4-8c-0.4-0.2-0.7-0.2-1.1-0.1l11.8,11.8L-125.9,247.3z"/>
	
		<linearGradient id="SVGID_2_" gradientUnits="userSpaceOnUse" x1="544.5316" y1="698.8915" x2="564.7527" y2="693.6054" gradientTransform="matrix(0.7071 0.7071 0.7071 -0.7071 -1011.827 346.819)">
		<stop  offset="0" style="stop-color:#ED277B"/>
		<stop  offset="1.920000e-02" style="stop-color:#EE2F7C"/>
		<stop  offset="0.7039" style="stop-color:#F7BD81"/>
		<stop  offset="1" style="stop-color:#FEEB74"/>
	</linearGradient>
	<path class="st2" d="M-125.9,254.6l5-2.7c1-0.5,1-1.5,0-2l-5-2.7l-3.7,3.7L-125.9,254.6z"/>
	
		<linearGradient id="SVGID_3_" gradientUnits="userSpaceOnUse" x1="555.8083" y1="683.0926" x2="533.8795" y2="695.994" gradientTransform="matrix(0.7071 0.7071 0.7071 -0.7071 -1011.827 346.819)">
		<stop  offset="0" style="stop-color:#89CFBD"/>
		<stop  offset="9.070000e-02" style="stop-color:#7DBEBB"/>
		<stop  offset="0.5396" style="stop-color:#457CAC"/>
		<stop  offset="0.8523" style="stop-color:#1C5AA2"/>
		<stop  offset="1" style="stop-color:#084D9F"/>
	</linearGradient>
	<path class="st3" d="M-141.5,239.1c-0.5,0.1-0.7,0.6-0.7,1.2v21.1c0,0.6,0.2,1.1,0.7,1.2l11.8-11.8L-141.5,239.1z"/>
	
		<linearGradient id="SVGID_4_" gradientUnits="userSpaceOnUse" x1="563.8118" y1="693.288" x2="550.3083" y2="675.4977" gradientTransform="matrix(0.7071 0.7071 0.7071 -0.7071 -1011.827 346.819)">
		<stop  offset="0" style="stop-color:#F04A2B"/>
		<stop  offset="0.4704" style="stop-color:#B54F6B"/>
		<stop  offset="0.8353" style="stop-color:#8B5191"/>
		<stop  offset="1" style="stop-color:#7851A1"/>
	</linearGradient>
	<path class="st4" d="M-141.5,262.9c0.2,0.1,0.7,0,1.1-0.1l14.4-8l-3.7-3.7L-141.5,262.9z"/>
</g>
</svg>
